<svg xmlns="http://www.w3.org/2000/svg" width="78" height="78" viewBox="0 0 78 78">
    <g fill="none" fill-rule="evenodd">
        <circle cx="39" cy="39" r="39" fill="#FFF"/>
        <path fill="#716ACA" fill-rule="nonzero" d="M57.931 24.699L47.017 13.952A3.327 3.327 0 0 0 44.683 13H34.215c-.875 0-1.715.342-2.334.952L20.967 24.699a3.216 3.216 0 0 0-.868 3.086l8.824 34.753C29.29 63.985 30.611 65 32.125 65h14.65c1.515 0 2.835-1.015 3.202-2.462l8.824-34.753a3.22 3.22 0 0 0-.87-3.086zm-12.36 35.426H33.328l-8.28-32.61 9.79-9.64h9.225l9.79 9.64-8.28 32.61zm-3.69-35.75c0-.898-.726-1.625-1.621-1.625h-1.621c-.896 0-1.62.727-1.62 1.625v4.875h-5.674c-.895 0-1.62.727-1.62 1.625V32.5c0 .898.725 1.625 1.62 1.625h5.673v13c0 .898.725 1.625 1.621 1.625h1.62c.896 0 1.622-.727 1.622-1.625v-13h5.672c.896 0 1.621-.727 1.621-1.625v-1.625c0-.898-.725-1.625-1.62-1.625H41.88v-4.875z"/>
    </g>
</svg>
