<svg xmlns="http://www.w3.org/2000/svg" width="78" height="78" viewBox="0 0 78 78">
    <g fill="none" fill-rule="evenodd">
        <circle cx="39" cy="39" r="39" fill="#FFF"/>
        <path fill="#716ACA" fill-rule="nonzero" d="M62.579 58.874l-11.36-11.36a1.11 1.11 0 0 0-.794-.327h-1.236a19.41 19.41 0 0 0 4.735-12.725C53.924 23.712 45.213 15 34.462 15 23.712 15 15 23.711 15 34.462c0 10.75 8.711 19.462 19.462 19.462a19.41 19.41 0 0 0 12.725-4.735v1.236c0 .299.122.58.328.795l11.359 11.359c.44.44 1.15.44 1.59 0l2.115-2.115c.44-.44.44-1.15 0-1.59zm-28.117-9.441c-8.271 0-14.97-6.7-14.97-14.971s6.699-14.97 14.97-14.97 14.97 6.699 14.97 14.97-6.699 14.97-14.97 14.97z"/>
        <path fill="#716ACA" fill-rule="nonzero" d="M35 27c2.2 0 4 1.8 4 4 0 2.22-1.8 4-4 4s-4-1.78-4-4c0-2.2 1.8-4 4-4zm0 18c-3.34 0-6.28-1.7-8-4.3.04-2.64 5.34-4.1 8-4.1s7.96 1.46 8 4.1a9.565 9.565 0 0 1-8 4.3z"/>
    </g>
</svg>
