<svg xmlns="http://www.w3.org/2000/svg" width="78" height="78" viewBox="0 0 78 78">
    <g fill="none" fill-rule="evenodd">
        <circle cx="39" cy="39" r="39" fill="#FFF"/>
        <path fill="#716ACA" fill-rule="nonzero" d="M47.25 41H42v-5.25a.752.752 0 0 0-.75-.75h-4.5a.752.752 0 0 0-.75.75V41h-5.25a.752.752 0 0 0-.75.75v4.5c0 .413.338.75.75.75H36v5.25c0 .413.337.75.75.75h4.5c.413 0 .75-.337.75-.75V47h5.25c.413 0 .75-.337.75-.75v-4.5a.752.752 0 0 0-.75-.75zM58.5 26H48v-4.5c0-2.484-2.016-4.5-4.5-4.5h-9a4.501 4.501 0 0 0-4.5 4.5V26H19.5a4.501 4.501 0 0 0-4.5 4.5v27c0 2.484 2.016 4.5 4.5 4.5h39c2.484 0 4.5-2.016 4.5-4.5v-27c0-2.484-2.016-4.5-4.5-4.5zm-24-4.5h9V26h-9v-4.5zm24 35.438c0 .309-.253.562-.563.562H20.063a.564.564 0 0 1-.563-.563V31.064c0-.31.253-.563.563-.563h37.874c.31 0 .563.253.563.563v25.875z"/>
    </g>
</svg>
