<svg xmlns="http://www.w3.org/2000/svg" width="34" height="24" viewBox="0 0 34 24">
    <path fill="#FFF" fill-rule="evenodd" d="M9.282 4.316a10.822 10.822 0 0 0-3.142 6.765h2.096a8.713 8.713 0 0 1 2.522-5.288 8.714 8.714 0 0 1 6.204-2.571c2.343 0 4.546.913 6.204 2.571a8.748 8.748 0 0 1 2.562 5.99h3.24l-.018.585c-.04 1.281-.28 2.53-.704 3.708L32.32 12l-7.68-7.683a10.787 10.787 0 0 0-7.68-3.182c-2.9 0-5.627 1.13-7.679 3.182m7.68.04c-2.04 0-3.96.795-5.403 2.239a7.596 7.596 0 0 0-2.237 5.404c0 2.042.795 3.962 2.237 5.405 2.98 2.98 7.826 2.98 10.805 0s2.979-7.829 0-10.81a7.589 7.589 0 0 0-5.402-2.238m7.68 15.327a10.823 10.823 0 0 0 3.142-6.765h-2.1a8.738 8.738 0 0 1-2.518 5.288c-3.421 3.422-8.987 3.422-12.408 0a8.719 8.719 0 0 1-2.567-5.991H4.956l.018-.584c.039-1.281.279-2.53.704-3.709L1.603 12l7.68 7.684a10.788 10.788 0 0 0 7.679 3.182c2.9 0 5.628-1.13 7.68-3.182m-7.68 4.316a11.913 11.913 0 0 1-8.481-3.515L0 12l8.48-8.484A11.913 11.913 0 0 1 16.963 0c3.204 0 6.215 1.248 8.48 3.515l8.482 8.484-8.481 8.485A11.912 11.912 0 0 1 16.962 24"/>
</svg>
